<svg width="60" height="74" viewBox="0 0 60 74" fill="none" xmlns="http://www.w3.org/2000/svg">
<path d="M50.2335 41.2258C48.235 31.1682 57.7814 25.2696 57.7814 25.2696C57.7814 25.2696 54.062 19.8885 47.8111 18.5042C41.5633 17.1168 38.4363 18.8502 35.3154 20.1502C32.1915 21.4535 30.6327 21.4535 30.6327 21.4535C26.1246 21.4535 22.8291 16.6803 14.24 18.8534C8.32269 20.3467 2.09348 27.1776 0.968006 35.3303C-0.157468 43.4862 2.27126 53.8929 6.95396 61.9584C11.6367 70.0301 16.4068 73.0636 19.7925 73.1509C23.1783 73.235 26.5579 70.7253 30.6327 70.1143C34.7107 69.5094 37.2204 71.5921 41.2203 72.7176C45.2046 73.84 46.6014 72.7987 51.1906 68.8953C55.7922 64.9919 59.9575 53.7964 59.9575 53.7964C59.9575 53.7964 52.2319 51.2896 50.2335 41.2258Z" fill="#1A3453"/>
<path d="M41.3881 11.9974C45.8151 7.48623 44.3156 0.502563 44.3156 0.502563C44.3156 0.502563 38.099 1.59378 33.9337 5.9273C29.7716 10.264 30.4606 17.1135 30.4606 17.1135C30.4606 17.1135 36.9609 16.5056 41.3881 11.9974Z" fill="#1A3453"/>
</svg>
